<?xml version="1.0" encoding="utf-8"?>
<!-- Generator: Adobe Illustrator 20.0.0, SVG Export Plug-In . SVG Version: 6.00 Build 0)  -->
<svg version="1.1" id="Layer_1" xmlns="http://www.w3.org/2000/svg" xmlns:xlink="http://www.w3.org/1999/xlink" x="0px" y="0px"
	 viewBox="0 0 87 59.9" style="enable-background:new 0 0 87 59.9;" xml:space="preserve">
<style type="text/css">
	.st0{fill:#7D7F82;}
</style>
<title>go</title>
<path class="st0" d="M85.8,27.1L59.9,1.2c-1.6-1.6-4.1-1.6-5.7,0c-1.6,1.6-1.6,4.1,0,5.7l19,19H4c-2.2,0-4,1.8-4,4s1.8,4,4,4h69.2
	l-19,19c-1.6,1.6-1.6,4.1,0,5.7s4.1,1.6,5.7,0l0,0l25.9-25.9C87.4,31.3,87.4,28.7,85.8,27.1C85.9,27.1,85.8,27.1,85.8,27.1z"/>
</svg>
